<?xml version="1.0" standalone="no"?>
<!DOCTYPE svg PUBLIC "-//W3C//DTD SVG 20010904//EN"
 "http://www.w3.org/TR/2001/REC-SVG-20010904/DTD/svg10.dtd">
<svg version="1.0" xmlns="http://www.w3.org/2000/svg"
 width="840.000000pt" height="859.000000pt" viewBox="0 0 840.000000 859.000000"
 preserveAspectRatio="xMidYMid meet">
<metadata>
Created by potrace 1.16, written by Peter Selinger 2001-2019
</metadata>
<g transform="translate(0.000000,859.000000) scale(0.100000,-0.100000)"
fill="#000000" stroke="none">
<path d="M3790 8070 c0 -20 5 -30 15 -30 11 0 15 -12 15 -49 0 -31 5 -51 13
-53 16 -6 18 -475 1 -486 -6 -4 -14 -41 -18 -82 -3 -41 -10 -77 -15 -80 -4 -3
-11 -25 -15 -50 -4 -24 -12 -47 -17 -51 -6 -3 -13 -25 -16 -48 -4 -25 -11 -41
-19 -41 -10 0 -14 -14 -14 -45 0 -33 -4 -45 -15 -45 -10 0 -15 -11 -15 -35 0
-24 -5 -35 -15 -35 -11 0 -15 -12 -15 -45 0 -33 -4 -45 -15 -45 -8 0 -15 -9
-15 -19 0 -11 -7 -26 -15 -35 -8 -8 -15 -21 -15 -30 0 -8 -6 -21 -14 -28 -7
-8 -17 -29 -21 -46 -3 -18 -13 -32 -21 -32 -8 0 -14 -7 -14 -15 0 -8 -4 -15
-9 -15 -5 0 -12 -13 -16 -30 -4 -16 -13 -30 -21 -30 -9 0 -14 -11 -14 -30 0
-20 -5 -30 -15 -30 -8 0 -15 -9 -15 -20 0 -11 -6 -20 -14 -20 -8 0 -17 -13
-21 -30 -4 -16 -11 -30 -16 -30 -5 0 -9 -7 -9 -15 0 -8 -7 -15 -15 -15 -8 0
-15 -7 -15 -15 0 -8 -6 -15 -14 -15 -8 0 -17 -13 -21 -30 -4 -16 -13 -30 -21
-30 -8 0 -14 -6 -14 -14 0 -8 -7 -16 -15 -20 -8 -3 -15 -12 -15 -21 0 -8 -7
-15 -15 -15 -8 0 -15 -7 -15 -15 0 -8 -7 -15 -15 -15 -8 0 -15 -7 -15 -15 0
-8 -6 -15 -14 -15 -8 0 -17 -13 -21 -30 -4 -16 -11 -30 -16 -30 -5 0 -9 -7 -9
-15 0 -8 -5 -15 -11 -15 -15 0 -59 -42 -59 -57 0 -7 -7 -13 -15 -13 -8 0 -15
-7 -15 -15 0 -8 -7 -15 -15 -15 -8 0 -15 -7 -15 -15 0 -8 -7 -15 -15 -15 -8 0
-15 -7 -15 -15 0 -8 -7 -15 -15 -15 -8 0 -15 -9 -15 -19 0 -11 -13 -33 -30
-49 -16 -17 -30 -35 -30 -40 0 -5 -9 -12 -20 -15 -11 -3 -20 -12 -20 -21 0 -9
-7 -16 -15 -16 -8 0 -15 -7 -15 -15 0 -8 -7 -15 -15 -15 -8 0 -15 -7 -15 -15
0 -8 -7 -15 -15 -15 -8 0 -15 -7 -15 -15 0 -8 -7 -15 -15 -15 -10 0 -15 -10
-15 -30 0 -20 -5 -30 -15 -30 -8 0 -15 -7 -15 -15 0 -8 -7 -15 -15 -15 -8 0
-15 -7 -15 -15 0 -8 -7 -15 -15 -15 -8 0 -15 -5 -15 -11 0 -7 -16 -27 -35 -46
-19 -19 -35 -43 -35 -53 0 -11 -7 -20 -15 -20 -8 0 -15 -7 -15 -15 0 -8 -7
-15 -15 -15 -8 0 -15 -7 -15 -15 0 -8 -7 -15 -15 -15 -10 0 -15 -10 -15 -30 0
-20 -5 -30 -15 -30 -8 0 -15 -9 -15 -20 0 -11 -7 -20 -15 -20 -8 0 -15 -7 -15
-15 0 -8 -7 -15 -15 -15 -10 0 -15 -10 -15 -30 0 -19 -5 -30 -14 -30 -8 0 -17
-13 -21 -29 -3 -16 -13 -32 -21 -35 -8 -3 -14 -12 -14 -21 0 -8 -7 -15 -15
-15 -10 0 -15 -10 -15 -30 0 -20 -5 -30 -15 -30 -10 0 -15 -10 -15 -30 0 -20
-5 -30 -15 -30 -10 0 -15 -10 -15 -30 0 -20 -5 -30 -15 -30 -10 0 -15 -10 -15
-30 0 -18 -6 -33 -15 -36 -8 -4 -15 -18 -15 -34 0 -16 -7 -35 -15 -44 -8 -8
-15 -28 -15 -45 0 -20 -5 -31 -14 -31 -9 0 -16 -17 -20 -49 -4 -27 -12 -51
-18 -53 -6 -2 -13 -30 -16 -61 -3 -39 -9 -57 -18 -57 -10 0 -14 -16 -14 -60 0
-47 -3 -60 -15 -60 -12 0 -15 -16 -15 -80 0 -64 -3 -80 -15 -80 -13 0 -15 -21
-15 -125 0 -104 -2 -125 -15 -125 -13 0 -15 -31 -15 -220 0 -194 2 -220 16
-220 12 0 15 -10 14 -42 -1 -24 -1 -87 -1 -140 1 -80 4 -98 16 -98 12 0 15
-17 15 -95 0 -78 3 -95 15 -95 12 0 15 -13 15 -60 0 -44 4 -61 16 -68 11 -6
17 -26 19 -62 1 -29 8 -56 14 -59 6 -4 14 -25 18 -47 3 -21 10 -42 16 -45 5
-4 12 -27 14 -53 4 -30 10 -46 19 -46 10 0 14 -14 14 -45 0 -33 4 -45 15 -45
10 0 15 -10 15 -30 0 -20 5 -30 15 -30 11 0 15 -12 15 -45 0 -33 4 -45 15 -45
10 0 15 -10 15 -30 0 -19 5 -30 14 -30 8 0 17 -15 20 -35 4 -19 11 -35 16 -35
4 0 11 -14 15 -30 4 -17 11 -30 16 -30 5 0 13 -8 16 -18 4 -9 13 -23 20 -30 7
-7 13 -22 13 -33 0 -10 7 -19 15 -19 10 0 15 -10 15 -30 0 -20 5 -30 15 -30 8
0 15 -7 15 -15 0 -8 7 -15 15 -15 10 0 15 -10 15 -30 0 -20 5 -30 15 -30 8 0
15 -7 15 -15 0 -8 7 -15 15 -15 8 0 15 -9 15 -20 0 -11 9 -28 20 -37 11 -10
20 -23 20 -30 0 -7 7 -13 15 -13 8 0 15 -7 15 -15 0 -8 7 -15 15 -15 8 0 15
-7 15 -15 0 -8 7 -15 15 -15 8 0 15 -7 15 -15 0 -8 7 -15 15 -15 10 0 15 -10
15 -30 0 -20 5 -30 15 -30 8 0 15 -7 15 -15 0 -8 7 -15 15 -15 8 0 15 -7 15
-15 0 -8 14 -17 35 -21 20 -3 35 -12 35 -20 0 -8 7 -14 15 -14 8 0 15 -7 15
-15 0 -8 7 -15 15 -15 8 0 15 -7 15 -15 0 -8 7 -15 15 -15 8 0 15 -7 15 -15 0
-8 7 -15 15 -15 8 0 15 -7 15 -15 0 -10 10 -15 30 -15 20 0 30 -5 30 -15 0 -8
9 -15 20 -15 11 0 20 -7 20 -15 0 -8 6 -15 14 -15 7 0 27 -3 43 -6 29 -6 30
-5 25 25 -4 26 -1 31 17 31 11 0 21 6 21 14 0 8 7 16 15 20 8 3 15 12 15 21 0
8 7 15 15 15 10 0 15 10 15 30 0 20 5 30 15 30 8 0 15 7 15 15 0 8 7 15 15 15
8 0 15 7 15 15 0 8 7 15 16 15 9 0 18 9 21 20 3 11 9 20 14 20 5 0 9 10 9 23
0 23 39 67 59 67 6 0 11 7 11 15 0 8 7 15 15 15 10 0 15 10 15 30 0 20 5 30
15 30 8 0 15 7 15 15 0 8 7 15 15 15 8 0 15 9 15 20 0 11 7 20 15 20 8 0 15 6
15 14 0 8 8 13 18 12 13 -1 17 7 17 32 0 19 5 32 12 32 7 0 13 7 13 15 0 8 7
15 15 15 8 0 15 7 15 15 0 8 9 15 20 15 15 0 20 7 20 29 0 16 6 31 15 35 8 3
15 12 15 21 0 8 7 15 15 15 10 0 15 10 15 30 0 27 3 30 30 30 27 0 30 3 30 30
0 23 4 30 20 30 11 0 20 7 20 15 0 8 7 15 15 15 9 0 12 6 9 15 -4 9 0 15 10
15 9 0 16 7 16 15 0 9 7 18 15 21 8 4 15 10 15 15 0 5 -7 9 -15 9 -8 0 -15 7
-15 15 0 8 -7 15 -15 15 -8 0 -15 7 -15 15 0 8 -7 15 -15 15 -8 0 -15 7 -15
15 0 8 -7 15 -15 15 -8 0 -15 9 -15 20 0 16 -7 20 -30 20 -20 0 -30 5 -30 15
0 8 -7 15 -15 15 -9 0 -18 7 -21 15 -4 9 -19 15 -35 15 -19 0 -29 5 -29 15 0
9 -9 15 -25 15 -16 0 -25 6 -25 15 0 10 -11 15 -35 15 -24 0 -35 5 -35 15 0 8
-7 15 -15 15 -8 0 -15 9 -15 20 0 11 7 20 15 20 10 0 15 10 15 30 0 20 5 30
15 30 8 0 15 7 15 15 0 8 7 15 15 15 8 0 15 6 15 13 0 7 9 20 20 30 11 9 20
23 20 31 0 8 7 16 15 20 8 3 15 12 15 21 0 8 7 15 15 15 8 0 15 7 15 15 0 8 7
15 15 15 8 0 15 7 15 15 0 8 7 15 15 15 10 0 15 10 15 30 0 20 5 30 15 30 8 0
15 7 15 15 0 8 7 15 15 15 8 0 15 9 15 20 0 11 7 20 15 20 8 0 15 7 15 15 0 8
9 23 20 32 11 10 20 23 20 30 0 7 5 13 10 13 6 0 10 7 10 15 0 8 6 15 14 15 8
0 17 13 21 30 4 16 13 30 21 30 8 0 14 9 14 20 0 11 7 20 15 20 9 0 15 9 15
25 0 16 6 25 15 25 8 0 15 9 15 20 0 11 6 20 14 20 8 0 17 13 21 30 4 16 11
30 16 30 5 0 9 7 9 15 0 8 6 15 14 15 8 0 17 13 21 29 3 16 13 32 21 35 8 3
14 16 14 30 0 13 7 26 15 30 8 3 15 16 15 30 0 13 7 26 15 30 8 3 15 12 15 21
0 8 7 15 15 15 10 0 15 11 15 35 0 24 5 35 15 35 18 0 20 17 3 23 -7 2 -13 17
-14 33 -1 79 -4 94 -19 94 -12 0 -15 17 -15 95 0 78 -3 95 -15 95 -13 0 -15
21 -15 125 0 104 -2 125 -15 125 -8 0 -15 7 -15 15 0 8 7 15 15 15 8 0 15 7
15 15 0 8 -7 15 -15 15 -13 0 -15 31 -15 220 0 189 2 220 15 220 13 0 15 22
15 140 0 118 2 140 15 140 12 0 15 15 15 75 0 60 3 75 15 75 12 0 15 14 15 65
0 49 3 65 14 65 9 0 15 17 18 56 3 31 9 59 15 62 5 4 13 27 17 52 4 24 11 47
17 51 5 3 12 23 16 45 3 21 12 43 20 47 7 4 13 25 13 46 0 25 5 41 15 45 9 3
15 18 15 36 0 20 5 30 15 30 10 0 15 10 15 30 0 20 5 30 15 30 10 0 15 11 15
35 0 24 5 35 15 35 10 0 15 10 15 30 0 20 5 30 15 30 10 0 15 10 15 30 0 19 5
30 14 30 8 0 17 14 21 30 4 17 10 30 15 30 5 0 11 13 15 29 3 16 13 32 22 35
14 6 15 20 9 109 -4 56 -12 105 -18 108 -7 4 -14 35 -16 68 -3 43 -8 61 -18
61 -10 0 -14 16 -14 59 0 34 -5 61 -11 63 -6 2 -13 25 -16 51 -4 31 -10 47
-19 47 -10 0 -14 14 -14 50 0 38 -4 50 -15 50 -11 0 -15 12 -15 45 0 33 -4 45
-15 45 -9 0 -15 9 -15 23 0 38 -12 67 -26 67 -9 0 -14 11 -14 29 0 16 -5 31
-11 33 -5 2 -13 22 -16 46 -3 26 -11 42 -19 42 -9 0 -14 12 -14 35 0 24 -5 35
-15 35 -10 0 -15 10 -15 30 0 20 -5 30 -15 30 -10 0 -15 10 -15 30 0 20 -5 30
-15 30 -10 0 -15 10 -15 30 0 20 -5 30 -15 30 -8 0 -15 9 -15 19 0 11 -7 26
-15 35 -8 8 -15 22 -15 30 0 9 -6 16 -14 16 -8 0 -17 14 -21 30 -4 17 -13 30
-21 30 -9 0 -14 11 -14 30 0 20 -5 30 -15 30 -8 0 -15 9 -15 20 0 11 -7 20
-15 20 -10 0 -15 10 -15 30 0 20 -5 30 -15 30 -8 0 -15 7 -15 15 0 8 -7 15
-15 15 -10 0 -15 10 -15 30 0 20 -5 30 -15 30 -8 0 -15 7 -15 15 0 8 -7 15
-15 15 -8 0 -15 7 -15 15 0 8 -6 15 -14 15 -8 0 -17 13 -21 29 -3 16 -13 32
-21 35 -8 3 -14 12 -14 21 0 8 -7 15 -15 15 -8 0 -15 7 -15 15 0 8 -4 15 -10
15 -5 0 -10 -13 -10 -30z"/>
<path d="M5721 4539 c0 -15 -8 -29 -16 -33 -8 -3 -15 -11 -14 -18 0 -10 2 -10
6 0 8 21 23 13 23 -13 0 -26 -15 -34 -23 -12 -4 10 -6 10 -6 0 -1 -7 -8 -13
-16 -13 -8 0 -15 6 -15 13 0 8 -4 7 -10 -3 -9 -13 -11 -13 -20 0 -6 10 -10 11
-10 3 0 -7 -11 -13 -25 -13 -15 0 -28 -7 -32 -17 -9 -23 -38 -50 -60 -56 -15
-4 -14 -5 5 -6 17 -1 22 -7 22 -26 0 -14 -4 -25 -10 -25 -5 0 -10 7 -10 15 0
8 -7 15 -15 15 -9 0 -15 9 -15 25 0 24 -1 24 -20 8 -11 -10 -20 -28 -20 -40 0
-16 -6 -23 -20 -23 -11 0 -20 -7 -20 -15 0 -26 -19 -16 -23 13 -3 19 -4 14 -6
-15 -1 -38 -4 -43 -25 -43 -19 0 -26 6 -29 28 -3 19 -4 14 -6 -15 -1 -38 -4
-43 -25 -43 -19 0 -26 6 -29 28 l-4 27 -2 -27 c-1 -29 -15 -38 -24 -15 -3 6
-6 0 -6 -15 -1 -24 -5 -28 -31 -28 -38 0 -40 20 -2 21 27 2 27 2 2 6 -14 3
-29 10 -33 17 -5 6 -7 -2 -6 -19 3 -60 -1 -95 -11 -95 -5 0 -8 15 -6 34 1 19
-1 33 -6 30 -4 -3 -8 -12 -8 -20 0 -8 -4 -14 -10 -14 -5 0 -10 6 -10 14 0 8
-4 17 -8 20 -5 3 -7 -11 -6 -30 2 -19 -1 -34 -6 -34 -6 0 -11 15 -11 33 -1 17
-3 24 -6 15 -2 -10 -9 -18 -14 -18 -5 0 -9 8 -10 18 0 13 -2 14 -6 2 -3 -8
-11 -18 -17 -22 -8 -5 -7 -8 2 -8 6 0 12 -11 12 -24 0 -13 -6 -27 -12 -29 -10
-4 -10 -6 0 -6 23 -2 12 -21 -13 -21 -14 0 -25 5 -25 10 0 6 5 10 10 10 6 0 5
6 -2 14 -7 8 -15 10 -18 6 -3 -4 -12 -10 -20 -13 -12 -4 -11 -6 3 -6 24 -1 22
-21 -3 -21 -11 0 -20 -7 -20 -15 0 -8 -4 -15 -10 -15 -13 0 -13 47 0 53 6 3 5
4 -2 3 -7 -1 -14 -15 -16 -29 -4 -35 -20 -35 -25 1 -3 19 -4 14 -6 -15 -1 -48
-17 -58 -24 -15 -3 19 -4 14 -6 -15 0 -24 -5 -43 -11 -43 -5 0 -10 6 -10 13 0
8 -4 7 -10 -3 -9 -13 -11 -13 -20 0 -6 10 -10 11 -10 3 0 -26 -20 -12 -21 15
-2 27 -2 27 -6 2 -3 -14 -10 -28 -17 -32 -8 -6 -8 -8 2 -8 6 0 12 -4 12 -10 0
-5 -7 -10 -15 -10 -8 0 -15 -9 -15 -20 0 -11 -7 -20 -15 -20 -23 0 -20 60 3
61 13 0 14 2 2 6 -8 3 -17 9 -20 13 -3 4 -11 2 -18 -6 -7 -8 -8 -14 -2 -14 5
0 10 -13 10 -30 0 -25 -4 -30 -25 -30 -17 0 -25 6 -26 18 0 13 -2 14 -6 2 -3
-8 -11 -18 -17 -22 -8 -5 -7 -8 2 -8 6 0 12 -4 12 -10 0 -5 -7 -10 -15 -10 -8
0 -15 -7 -15 -15 0 -8 -4 -15 -10 -15 -5 0 -8 12 -6 28 1 15 -1 36 -5 47 -4
11 -8 14 -8 8 -1 -7 -9 -21 -20 -32 -12 -12 -17 -29 -15 -50 3 -27 1 -31 -21
-31 -29 0 -34 16 -7 23 16 4 16 5 0 6 -10 0 -18 6 -18 11 0 6 -6 5 -14 -2 -10
-9 -11 -15 -2 -20 8 -6 7 -11 -4 -18 -10 -6 -11 -10 -2 -10 6 0 12 -4 12 -10
0 -5 -9 -10 -20 -10 -11 0 -20 -7 -20 -15 0 -11 -11 -15 -39 -15 -36 0 -40 3
-44 28 l-4 27 -2 -27 c-1 -29 -15 -38 -24 -15 -3 6 -6 -9 -6 -35 -1 -27 -6
-48 -11 -48 -6 0 -9 15 -7 34 3 28 1 33 -15 28 -19 -4 -25 -28 -9 -34 5 -1 12
-34 16 -73 4 -44 12 -73 21 -78 9 -5 14 -24 14 -52 0 -33 4 -45 15 -45 11 0
15 -12 15 -44 0 -30 5 -46 15 -50 10 -4 15 -20 15 -51 0 -33 4 -45 15 -45 10
0 15 -10 15 -30 0 -20 5 -30 15 -30 11 0 15 -12 15 -45 0 -33 4 -45 15 -45 10
0 15 -10 15 -30 0 -19 5 -30 14 -30 8 0 17 -15 20 -34 4 -19 13 -37 21 -40 8
-3 15 -17 15 -31 0 -16 6 -25 15 -25 8 0 15 -7 15 -15 0 -8 4 -15 9 -15 5 0
12 -13 16 -29 3 -16 13 -32 21 -35 8 -3 14 -17 14 -31 0 -16 6 -25 15 -25 8 0
15 -9 15 -20 0 -11 7 -20 15 -20 10 0 15 -10 15 -30 0 -20 5 -30 15 -30 8 0
15 -7 15 -15 0 -8 6 -15 14 -15 8 0 17 -12 20 -26 4 -15 20 -38 37 -53 16 -14
29 -31 29 -38 0 -7 7 -13 15 -13 10 0 15 -10 15 -30 0 -20 5 -30 15 -30 8 0
15 -7 15 -15 0 -8 7 -15 15 -15 8 0 15 -7 15 -15 0 -8 7 -15 15 -15 8 0 15 -9
15 -20 0 -11 6 -20 14 -20 8 0 17 -11 20 -25 4 -14 11 -25 16 -25 6 0 10 -9
10 -20 0 -11 7 -20 15 -20 8 0 15 -7 15 -15 0 -8 6 -15 14 -15 8 0 17 -14 21
-30 4 -17 13 -30 21 -30 8 0 14 -9 14 -20 0 -11 7 -20 15 -20 28 0 15 -18 -17
-25 -17 -4 -38 -14 -46 -21 -7 -8 -22 -14 -33 -14 -10 0 -19 -7 -19 -15 0 -10
-10 -15 -30 -15 -20 0 -30 -5 -30 -15 0 -10 -10 -15 -30 -15 -20 0 -30 -5 -30
-15 0 -8 -7 -15 -15 -15 -8 0 -15 -7 -15 -15 0 -8 -7 -15 -15 -15 -8 0 -15 -7
-15 -15 0 -8 -9 -15 -20 -15 -10 0 -34 -16 -53 -35 -19 -19 -39 -35 -46 -35
-6 0 -11 -7 -11 -15 0 -8 -7 -15 -15 -15 -8 0 -15 -7 -15 -15 0 -8 -7 -15 -15
-15 -10 0 -15 -10 -15 -30 0 -20 -5 -30 -15 -30 -8 0 -15 -7 -15 -15 0 -8 -7
-15 -15 -15 -8 0 -15 -7 -15 -15 0 -9 -7 -18 -15 -21 -8 -4 -15 -17 -15 -31 0
-16 -7 -27 -20 -30 -11 -3 -20 -12 -20 -19 0 -8 -7 -14 -15 -14 -10 0 -15 -10
-15 -30 0 -20 -5 -30 -15 -30 -10 0 -15 -10 -15 -30 0 -20 -5 -30 -15 -30 -10
0 -15 -10 -15 -29 0 -20 -6 -30 -20 -34 -14 -3 -20 -14 -20 -32 0 -14 -7 -33
-15 -41 -9 -10 -15 -34 -15 -65 0 -37 -4 -49 -15 -49 -12 0 -15 -16 -15 -80 0
-64 -3 -80 -15 -80 -8 0 -15 -7 -15 -15 0 -8 7 -15 15 -15 8 0 15 -7 15 -15 0
-8 -7 -15 -15 -15 -12 0 -15 -19 -15 -110 0 -91 3 -110 15 -110 8 0 15 -7 15
-15 0 -8 -7 -15 -15 -15 -8 0 -15 -7 -15 -15 0 -8 6 -15 14 -15 10 0 15 -18
18 -61 2 -33 10 -64 17 -68 7 -5 15 -27 18 -50 3 -22 9 -41 13 -41 4 0 10 -9
13 -20 7 -26 37 -26 37 0 0 11 7 20 15 20 8 0 15 7 15 15 0 10 10 15 30 15 20
0 30 5 30 15 0 8 7 15 15 15 8 0 15 7 15 15 0 8 7 15 15 15 9 0 18 6 21 14 3
8 19 18 35 21 16 4 29 13 29 21 0 9 11 14 30 14 20 0 30 5 30 15 0 10 10 15
30 15 20 0 30 5 30 15 0 10 10 15 30 15 20 0 30 5 30 15 0 10 11 15 35 15 24
0 35 5 35 15 0 10 10 15 30 15 19 0 30 5 30 14 0 8 14 17 30 21 17 4 30 10 30
15 0 5 13 11 29 15 16 3 32 13 35 21 3 8 19 14 36 14 20 0 30 5 30 15 0 10 10
15 30 15 20 0 30 5 30 15 0 10 10 15 30 15 20 0 30 5 30 15 0 10 10 15 30 15
20 0 30 5 30 15 0 10 10 15 30 15 20 0 30 5 30 15 0 8 7 15 15 15 9 0 18 6 21
14 3 8 19 18 35 21 16 4 29 13 29 21 0 8 7 14 15 14 8 0 15 7 15 15 0 8 6 15
14 15 8 0 16 7 20 15 3 8 12 15 21 15 8 0 15 7 15 15 0 9 9 15 25 15 16 0 25
6 25 15 0 8 9 15 20 15 11 0 20 7 20 15 0 8 7 15 15 15 8 0 15 7 15 15 0 8 7
15 15 15 8 0 15 9 15 20 0 11 7 20 15 20 8 0 15 7 15 15 0 8 7 15 15 15 8 0
15 7 15 15 0 8 7 15 15 15 8 0 15 7 15 15 0 8 7 15 15 15 10 0 15 10 15 30 0
23 4 30 20 30 11 0 20 7 20 15 0 8 7 15 15 15 8 0 15 9 15 20 0 11 7 20 15 20
10 0 15 10 15 30 0 20 5 30 15 30 10 0 15 10 15 30 0 20 5 30 15 30 8 0 15 7
15 15 0 8 7 15 15 15 10 0 15 10 15 30 0 20 5 30 15 30 10 0 15 10 15 29 0 20
6 30 20 34 14 3 20 14 20 32 0 14 7 33 15 41 8 9 15 24 15 35 0 10 7 19 15 19
11 0 15 12 15 45 0 33 4 45 15 45 10 0 15 11 15 35 0 24 5 35 15 35 11 0 15
12 15 45 0 33 4 45 15 45 12 0 15 13 15 60 0 45 4 62 15 66 11 5 15 22 15 65
0 43 4 59 14 59 10 0 15 22 18 91 3 61 9 93 18 99 18 11 22 697 3 708 -6 4
-15 41 -19 82 -4 41 -11 78 -17 82 -6 3 -13 34 -15 67 -3 43 -8 61 -18 61 -10
0 -14 13 -14 45 0 33 -4 45 -15 45 -11 0 -15 12 -15 50 0 38 -4 50 -15 50 -11
0 -15 12 -15 45 0 33 -4 45 -15 45 -10 0 -15 10 -15 30 0 20 -5 30 -15 30 -10
0 -15 10 -15 30 0 19 -5 30 -14 30 -8 0 -17 13 -21 29 -3 16 -13 32 -21 35 -8
3 -14 12 -14 21 0 8 -4 15 -9 15 -5 0 -12 14 -16 30 -4 17 -13 30 -21 30 -9 0
-14 11 -14 30 0 20 -5 30 -15 30 -8 0 -15 7 -15 15 0 8 -7 15 -15 15 -8 0 -15
9 -15 20 0 11 -7 20 -15 20 -8 0 -15 7 -15 15 0 8 -9 23 -20 32 -11 10 -20 23
-20 30 0 7 -7 13 -15 13 -8 0 -15 6 -15 14 0 8 -11 17 -25 20 -24 6 -36 26
-15 26 6 0 10 7 10 15 0 8 -6 15 -14 15 -8 0 -22 7 -30 16 -9 8 -16 11 -16 5
0 -23 -19 -9 -23 17 l-4 27 -2 -26z"/>
</g>
</svg>
