<?xml version="1.0" standalone="no"?>
<!DOCTYPE svg PUBLIC "-//W3C//DTD SVG 20010904//EN"
 "http://www.w3.org/TR/2001/REC-SVG-20010904/DTD/svg10.dtd">
<svg version="1.0" xmlns="http://www.w3.org/2000/svg"
 width="298.000000pt" height="169.000000pt" viewBox="0 0 298.000000 169.000000"
 preserveAspectRatio="xMidYMid meet">
<metadata>
Created by potrace 1.16, written by Peter Selinger 2001-2019
</metadata>
<g transform="translate(0.000000,169.000000) scale(0.100000,-0.100000)"
fill="#000000" stroke="none">
<path d="M1432 1221 c-156 -236 -216 -469 -160 -618 25 -67 97 -145 171 -183
l47 -25 48 25 c73 38 145 116 170 183 43 114 21 271 -64 446 -43 92 -142 251
-154 251 -3 0 -30 -36 -58 -79z"/>
<path d="M1156 1172 c-25 -90 -22 -109 28 -162 l43 -46 35 81 c26 62 32 86 24
96 -18 23 -96 89 -105 89 -4 0 -16 -26 -25 -58z"/>
<path d="M1743 1189 c-26 -23 -51 -46 -54 -51 -3 -5 10 -46 29 -92 l35 -82 45
48 c43 46 45 50 39 96 -8 63 -26 122 -37 122 -5 0 -30 -19 -57 -41z"/>
<path d="M926 1079 c-9 -48 -7 -112 5 -171 10 -45 22 -63 83 -126 39 -41 96
-96 127 -123 l56 -48 -10 56 c-7 39 -6 82 2 140 l12 84 -36 44 c-20 24 -55 59
-78 78 -45 37 -137 97 -148 97 -3 0 -9 -14 -13 -31z"/>
<path d="M1985 1079 c-71 -45 -128 -94 -170 -144 l-36 -44 12 -84 c8 -58 9
-101 2 -140 l-10 -56 56 48 c31 27 88 82 127 123 61 63 73 81 83 126 17 79 12
202 -8 202 -4 0 -29 -14 -56 -31z"/>
<path d="M755 878 c11 -80 49 -192 85 -248 71 -110 193 -192 335 -224 73 -16
201 -27 188 -16 -5 4 -55 45 -113 91 -58 46 -182 160 -277 253 -95 94 -184
176 -199 184 l-26 14 7 -54z"/>
<path d="M2189 906 c-19 -13 -108 -97 -199 -187 -91 -90 -214 -202 -272 -249
-59 -47 -106 -85 -105 -86 1 0 42 3 91 7 241 22 407 137 481 333 24 64 51 193
43 202 -3 2 -20 -6 -39 -20z"/>
<path d="M698 614 c-27 -8 -48 -18 -48 -23 0 -14 146 -110 213 -140 98 -45
119 -48 70 -13 -55 41 -127 117 -150 159 -20 37 -20 37 -85 17z"/>
<path d="M2197 598 c-20 -38 -75 -99 -132 -146 -34 -29 -36 -33 -15 -27 71 20
279 144 280 167 0 6 -86 38 -105 38 -6 0 -18 -15 -28 -32z"/>
</g>
</svg>
